<?xml version="1.0" encoding="utf-8"?>
<!-- Generator: Adobe Illustrator 28.1.0, SVG Export Plug-In . SVG Version: 6.00 Build 0)  -->
<svg version="1.1" id="Capa_1" xmlns="http://www.w3.org/2000/svg" xmlns:xlink="http://www.w3.org/1999/xlink" x="0px" y="0px"
	 viewBox="0 0 851 850" style="enable-background:new 0 0 851 850;" xml:space="preserve">
<style type="text/css">
	.st0{fill:#1D1D1B;}
	.st1{fill:#FFFFFF;}
</style>
<path id="a" class="st0" d="M79.5,0h692C815.4,0,851,35.6,851,79.5v691c0,43.9-35.6,79.5-79.5,79.5h-692C35.6,850,0,814.4,0,770.5
	v-691C0,35.6,35.6,0,79.5,0z"/>
<path class="st1" d="M145,611.9c0,74.1,37.7,128.9,109,158.4c51.7,21.4,102.6,21.6,104.8,21.6v-36c-0.5,0-45.9-0.2-91-18.9
	c-57.6-23.8-86.8-65.9-86.8-125.2c0-58.9,29.3-100.9,86.9-124.8c45.7-18.9,92.6-19.3,93-19.3v-36c-2.2,0-53.6,0.2-105.8,21.6
	C183.1,483,145,537.8,145,611.9z M597,376.8c-45.6,19.1-92.5,19.7-92.9,19.7l0.2,36c2.2,0,53.6-0.5,105.7-22.1
	c71.9-29.8,109.8-84.8,109.4-159C719,177.3,681,122.7,609.6,93.5c-51.8-21.1-102.7-21.1-104.9-21.1l0.1,36c0.7,0,46.9,0.2,92,18.8
	c57.1,23.6,86.2,65.5,86.5,124.4S654.5,352.6,597,376.8L597,376.8z"/>
<path class="st1" d="M463.7,440.3V72h-59v305L164.1,118.9V73.5H72.6l332.1,356.3V792h59V493.1l231.2,248.2V793h97.5L463.7,440.3z"/>
</svg>
