<svg class="logo" xmlns="http://www.w3.org/2000/svg"viewBox="0 0 850 850">
  <path fill="#f0f0f0" d="M79.5 0h692C815.4 0 851 35.6 851 79.5v691c0 43.9-35.6 79.5-79.5 79.5h-692C35.6 850 0 814.4 0 770.5v-691C0 35.6 35.6 0 79.5 0z"/>
  <path fill="#282828" d="M145 611.9c0 74.1 37.7 128.9 109 158.4 51.7 21.4 102.6 21.6 104.8 21.6v-36c-.5 0-45.9-.2-91-18.9-57.6-23.8-86.8-65.9-86.8-125.2 0-58.9 29.3-100.9 86.9-124.8 45.7-18.9 92.6-19.3 93-19.3v-36c-2.2 0-53.6.2-105.8 21.6C183.1 483 145 537.8 145 611.9zm452-235.1c-45.6 19.1-92.5 19.7-92.9 19.7l.2 36c2.2 0 53.6-.5 105.7-22.1 71.9-29.8 109.8-84.8 109.4-159-.4-74.1-38.4-128.7-109.8-157.9-51.8-21.1-102.7-21.1-104.9-21.1l.1 36c.7 0 46.9.2 92 18.8 57.1 23.6 86.2 65.5 86.5 124.4.3 58.9-28.8 101-86.3 125.2z"/>
  <path fill="#282828" d="M463.7 440.3V72h-59v305L164.1 118.9V73.5H72.6l332.1 356.3V792h59V493.1l231.2 248.2V793h97.5z"/>
</svg>
