<?xml version="1.0" standalone="no"?>
<!DOCTYPE svg PUBLIC "-//W3C//DTD SVG 20010904//EN"
 "http://www.w3.org/TR/2001/REC-SVG-20010904/DTD/svg10.dtd">
<svg version="1.0" xmlns="http://www.w3.org/2000/svg"
 width="1995.928339pt" height="1995.942025pt" viewBox="0 0 1995.928339 1995.942025"
 preserveAspectRatio="xMidYMid meet">
<metadata>
Created by potrace 1.12, written by Peter Selinger 2001-2015
</metadata>
<g transform="translate(-2.513412,1997.500274) scale(0.100000,-0.100000)"
fill="currentColor" stroke="currentColor">
<path d="M9430 19974 c-203 -12 -420 -32 -600 -55 -41 -5 -102 -12 -134 -15
-33 -3 -63 -7 -66 -9 -3 -2 -35 -7 -70 -10 -36 -4 -67 -8 -71 -10 -3 -2 -30
-7 -59 -10 -30 -4 -57 -8 -60 -10 -3 -2 -30 -6 -60 -10 -30 -4 -57 -8 -60 -10
-3 -2 -25 -6 -50 -10 -25 -4 -47 -8 -50 -10 -3 -1 -25 -6 -50 -9 -25 -3 -60
-10 -77 -15 -18 -5 -33 -8 -33 -6 0 3 -10 1 -23 -4 -13 -5 -41 -12 -63 -15
-21 -4 -77 -15 -124 -27 -47 -11 -114 -26 -150 -35 -105 -24 -348 -91 -570
-157 -178 -53 -397 -128 -600 -206 -41 -16 -106 -41 -145 -56 -38 -15 -83 -33
-100 -40 -16 -7 -75 -32 -130 -55 -251 -106 -609 -277 -798 -382 -196 -109
-233 -129 -264 -145 l-33 -17 0 -2430 c0 -2315 1 -2429 18 -2410 9 10 30 37
46 59 17 22 33 42 36 45 3 3 21 25 40 50 19 25 40 50 46 55 5 6 30 35 55 65
24 30 51 62 61 70 9 8 37 40 63 70 124 145 448 457 590 570 22 17 42 35 45 39
3 3 25 22 50 41 25 19 47 37 50 40 3 3 23 19 45 35 22 17 42 33 45 36 32 39
678 469 705 469 2 0 28 14 57 31 133 79 548 277 741 353 146 58 376 137 582
199 46 14 240 65 275 72 8 2 45 10 83 19 37 9 82 18 100 21 17 3 39 8 47 10 8
2 29 7 45 9 17 3 54 10 84 16 55 10 245 40 291 45 14 1 79 8 145 14 66 7 125
14 132 16 20 7 369 20 533 20 162 0 504 -13 530 -20 12 -3 123 -16 271 -30 15
-2 44 -6 65 -9 22 -4 55 -9 74 -11 47 -6 120 -18 180 -30 14 -2 41 -7 60 -10
19 -3 42 -8 50 -10 8 -2 31 -7 50 -10 19 -3 43 -8 52 -11 9 -3 25 -7 35 -9
310 -68 695 -189 1018 -321 228 -94 613 -286 820 -409 134 -80 482 -308 495
-325 3 -3 21 -17 40 -30 19 -13 41 -30 48 -37 7 -7 26 -20 42 -30 17 -9 30
-20 30 -23 0 -4 21 -22 48 -40 26 -19 52 -39 57 -45 6 -6 33 -29 60 -50 28
-22 52 -42 55 -46 3 -3 39 -35 80 -70 100 -85 459 -444 539 -539 35 -41 68
-79 75 -85 6 -5 29 -32 51 -60 21 -27 42 -52 45 -55 3 -3 21 -25 40 -50 19
-25 37 -47 40 -50 3 -3 17 -21 30 -40 13 -19 27 -37 30 -40 3 -3 17 -21 30
-40 13 -19 30 -41 37 -48 28 -29 268 -399 349 -537 128 -221 309 -592 401
-825 79 -200 153 -403 153 -421 0 -5 -277 -9 -667 -9 l-668 0 -34 83 c-61 144
-206 429 -301 588 -87 145 -228 358 -257 387 -7 7 -13 17 -13 20 0 4 -11 19
-23 33 -13 13 -37 44 -52 67 -15 23 -31 42 -34 42 -4 0 -14 12 -23 28 -9 15
-29 41 -45 58 -15 16 -60 68 -100 115 -83 97 -380 392 -468 465 -33 27 -64 54
-70 60 -5 6 -30 26 -55 45 -25 18 -47 36 -50 39 -3 3 -23 19 -45 35 -22 17
-42 32 -45 35 -11 12 -150 110 -239 170 -344 229 -763 437 -1146 570 -164 56
-407 126 -508 146 -10 2 -26 5 -35 8 -9 3 -35 8 -57 12 -22 3 -42 7 -45 9 -3
2 -25 6 -50 10 -25 4 -47 8 -50 10 -3 2 -30 6 -60 10 -30 4 -58 9 -61 10 -6 4
-152 23 -234 31 -27 2 -84 9 -126 14 -104 13 -715 13 -836 0 -54 -6 -134 -15
-178 -21 -44 -6 -91 -12 -105 -13 -77 -9 -139 -19 -170 -26 -19 -5 -55 -12
-80 -15 -24 -4 -47 -8 -50 -10 -3 -2 -21 -6 -40 -9 -51 -8 -342 -83 -435 -113
-307 -96 -607 -219 -843 -344 -171 -90 -518 -300 -542 -328 -3 -3 -32 -24 -64
-46 -33 -22 -64 -44 -70 -50 -6 -5 -47 -37 -91 -70 -44 -33 -87 -67 -95 -75
-9 -8 -41 -35 -71 -59 -140 -115 -455 -430 -570 -570 -24 -30 -51 -62 -59 -71
-8 -8 -42 -51 -75 -95 -33 -44 -65 -85 -70 -91 -6 -6 -28 -37 -50 -70 -22 -32
-43 -61 -46 -64 -28 -24 -238 -371 -328 -542 -125 -236 -248 -536 -344 -843
-30 -93 -105 -384 -113 -435 -3 -19 -8 -38 -9 -41 -2 -3 -7 -28 -11 -55 -3
-27 -8 -52 -10 -55 -5 -9 -25 -137 -31 -201 l-5 -58 5611 0 5611 0 0 -22 c1
-31 8 -123 19 -233 5 -49 9 -1901 10 -4114 1 -2214 4 -4027 7 -4030 3 -3 11 1
17 9 7 9 35 33 62 55 28 21 55 44 60 49 6 6 37 33 70 60 33 27 65 54 70 60 6
6 42 38 80 71 179 152 668 641 820 820 33 39 65 75 71 80 6 6 33 37 60 70 27
33 54 65 60 70 5 6 28 33 49 60 22 28 45 55 51 60 6 6 24 28 40 50 16 22 34
45 39 51 6 6 37 47 70 90 33 43 62 81 65 84 10 9 165 224 257 355 123 177 338
517 423 670 12 22 37 65 55 95 115 196 305 574 419 835 32 72 65 148 75 170
35 75 169 420 211 540 160 457 297 944 366 1298 2 10 5 26 8 35 3 9 8 33 11
52 3 19 8 42 11 51 2 10 6 30 8 45 2 16 11 63 20 105 9 42 18 98 21 125 3 27
8 56 10 64 7 25 42 266 51 355 2 28 9 77 13 110 5 33 9 67 9 75 -1 8 4 56 9
105 6 50 11 106 12 125 1 19 5 80 11 135 13 142 15 252 14 765 0 430 -7 579
-36 855 -7 61 -11 114 -10 118 2 5 -2 34 -7 65 -6 32 -13 88 -16 126 -3 38 -8
72 -10 76 -2 3 -7 35 -10 70 -4 36 -8 67 -10 70 -2 3 -6 32 -10 64 -3 33 -8
62 -10 65 -1 3 -6 31 -10 61 -4 30 -8 58 -10 61 -2 3 -6 27 -10 53 -3 27 -7
51 -9 55 -3 4 -7 27 -11 51 -4 25 -13 77 -21 115 -16 74 -20 92 -30 140 -12
61 -125 515 -143 577 -152 511 -298 927 -416 1185 -14 29 -25 56 -25 58 0 14
-145 324 -246 526 -133 267 -222 430 -372 679 -93 155 -346 547 -362 560 -3 3
-14 18 -24 35 -11 16 -23 34 -28 40 -5 5 -41 55 -80 110 -40 55 -75 102 -78
105 -3 3 -32 41 -64 85 -32 44 -64 85 -70 90 -6 6 -24 28 -40 50 -17 22 -32
42 -35 45 -4 3 -24 28 -46 55 -21 28 -42 52 -45 55 -3 3 -25 30 -49 60 -24 30
-51 62 -60 70 -9 9 -41 45 -70 80 -30 36 -80 92 -111 125 -31 33 -85 92 -120
130 -118 129 -244 256 -375 377 -71 67 -157 146 -190 178 -33 31 -87 78 -120
106 -33 27 -62 52 -63 57 -2 4 -31 28 -63 53 -33 25 -68 54 -77 63 -9 9 -39
34 -67 56 -27 22 -52 42 -55 45 -3 3 -23 19 -45 35 -22 17 -42 32 -45 35 -3 4
-23 19 -45 35 -22 17 -42 32 -45 35 -3 3 -23 18 -45 35 -22 16 -49 37 -59 47
-11 10 -23 18 -27 18 -4 0 -14 6 -21 13 -12 11 -110 84 -155 115 -10 7 -54 38
-98 69 -193 137 -613 396 -870 537 -357 196 -844 424 -1170 548 -44 16 -118
45 -165 63 -166 63 -507 175 -713 235 -95 27 -510 134 -562 144 -11 3 -53 12
-92 20 -40 9 -87 18 -105 21 -18 3 -40 8 -48 10 -8 2 -26 6 -40 9 -14 2 -65
12 -115 21 -49 10 -99 19 -110 21 -11 1 -63 9 -115 18 -52 9 -117 18 -145 21
-27 3 -57 8 -65 10 -17 5 -169 24 -245 31 -27 2 -81 8 -120 13 -38 5 -83 9
-100 10 -16 0 -75 5 -130 10 -55 6 -107 11 -115 11 -39 3 -1182 7 -1230 4z"/>
<path d="M3679 17737 c-19 -17 -57 -50 -85 -71 -27 -22 -53 -44 -59 -50 -5 -6
-37 -34 -70 -61 -33 -27 -80 -68 -105 -91 -25 -23 -90 -83 -145 -132 -107 -97
-495 -487 -584 -587 -30 -33 -73 -80 -95 -105 -23 -25 -64 -72 -91 -105 -27
-33 -55 -64 -61 -70 -6 -5 -28 -32 -50 -60 -21 -27 -46 -56 -54 -65 -9 -9 -29
-34 -45 -55 -17 -22 -35 -44 -41 -50 -5 -5 -23 -28 -39 -50 -16 -22 -32 -42
-35 -45 -3 -3 -17 -21 -30 -40 -13 -19 -27 -37 -30 -40 -3 -3 -19 -23 -36 -45
-16 -22 -35 -46 -42 -53 -6 -7 -12 -17 -12 -21 0 -4 -8 -16 -18 -27 -28 -30
-226 -313 -314 -449 -91 -141 -310 -502 -360 -595 -19 -36 -58 -106 -86 -157
-106 -189 -276 -547 -382 -798 -23 -55 -48 -113 -55 -130 -7 -16 -25 -61 -40
-100 -15 -38 -40 -104 -56 -145 -78 -203 -153 -422 -206 -600 -66 -222 -133
-465 -157 -570 -9 -36 -24 -103 -35 -150 -12 -47 -23 -103 -27 -124 -3 -22
-10 -50 -15 -63 -5 -13 -7 -23 -4 -23 2 0 -1 -15 -6 -32 -5 -18 -12 -53 -15
-78 -3 -25 -8 -47 -9 -50 -2 -3 -6 -25 -10 -50 -4 -25 -8 -47 -10 -50 -2 -3
-6 -30 -10 -60 -4 -30 -8 -57 -10 -60 -2 -3 -6 -30 -10 -60 -3 -29 -8 -56 -10
-59 -2 -4 -6 -35 -10 -71 -3 -35 -8 -67 -10 -70 -2 -3 -6 -33 -9 -66 -3 -32
-10 -93 -15 -134 -49 -376 -56 -512 -56 -1115 0 -626 1 -708 15 -830 5 -44 10
-98 11 -120 0 -22 5 -71 10 -110 5 -38 11 -92 13 -120 7 -76 26 -228 31 -245
2 -8 7 -37 10 -65 3 -27 12 -93 21 -145 9 -52 17 -104 18 -115 2 -11 11 -60
21 -110 9 -49 19 -101 21 -115 3 -14 7 -32 9 -40 2 -8 7 -30 10 -48 3 -18 12
-65 21 -105 8 -39 17 -81 20 -92 10 -52 117 -467 144 -562 60 -206 172 -547
235 -713 18 -47 47 -121 63 -165 124 -326 352 -813 548 -1170 141 -257 400
-677 537 -870 31 -44 62 -88 69 -98 31 -45 104 -143 115 -155 7 -7 13 -17 13
-21 0 -4 8 -16 18 -27 10 -10 31 -37 47 -59 17 -22 32 -42 35 -45 3 -3 18 -23
35 -45 16 -22 31 -42 35 -45 3 -3 18 -23 35 -45 16 -22 32 -42 35 -45 3 -3 23
-27 45 -55 22 -27 47 -58 56 -67 9 -9 38 -44 63 -77 25 -32 49 -61 53 -63 5
-1 30 -30 57 -63 28 -33 75 -87 106 -120 31 -33 85 -91 120 -130 118 -129 244
-256 375 -377 72 -67 157 -146 190 -178 33 -31 89 -81 125 -111 35 -29 71 -61
80 -70 8 -9 40 -36 70 -60 30 -24 57 -46 60 -49 3 -3 28 -24 55 -45 28 -22 52
-42 55 -46 3 -3 23 -18 45 -35 22 -16 45 -34 50 -40 6 -6 46 -38 90 -70 44
-32 82 -61 85 -64 3 -3 50 -38 105 -78 55 -39 105 -75 110 -80 6 -5 24 -17 40
-28 17 -10 32 -21 35 -24 13 -16 405 -269 560 -362 249 -150 412 -239 679
-372 202 -101 512 -246 526 -246 2 0 29 -11 58 -25 258 -118 674 -264 1185
-416 62 -18 516 -131 577 -143 48 -10 66 -14 140 -30 39 -8 90 -17 115 -21 24
-4 47 -8 51 -11 4 -2 28 -6 55 -9 26 -4 50 -8 53 -10 3 -2 31 -6 61 -10 30 -4
58 -9 61 -10 3 -2 32 -7 65 -10 32 -4 61 -8 64 -10 3 -2 34 -6 70 -10 35 -3
67 -8 70 -10 4 -2 38 -7 76 -10 38 -3 94 -10 126 -16 31 -5 60 -9 65 -7 4 1
58 -3 118 -10 276 -29 425 -36 855 -36 513 -1 623 1 765 14 55 6 116 10 135
11 19 1 76 6 125 12 50 5 97 10 105 9 8 0 42 4 75 9 33 4 83 11 110 13 89 9
330 44 355 51 8 2 37 7 64 10 27 3 83 12 125 21 42 9 89 18 105 20 15 2 35 6
45 8 9 3 32 8 51 11 19 3 43 8 52 11 9 3 25 6 35 8 354 69 841 206 1298 366
120 42 465 176 540 211 22 10 99 43 170 75 279 121 647 308 863 436 l82 49 0
2425 c0 1333 -3 2424 -7 2424 -5 0 -19 -17 -33 -37 -14 -20 -30 -41 -35 -47
-6 -6 -26 -31 -45 -56 -19 -25 -39 -49 -45 -55 -6 -5 -29 -32 -50 -60 -22 -27
-42 -52 -45 -55 -4 -3 -38 -41 -78 -86 -91 -105 -391 -405 -496 -496 -45 -40
-83 -74 -86 -78 -3 -3 -27 -23 -55 -45 -27 -21 -54 -44 -60 -50 -5 -6 -30 -26
-55 -45 -25 -19 -47 -37 -50 -40 -3 -3 -23 -18 -45 -35 -22 -16 -42 -32 -45
-35 -3 -3 -36 -28 -75 -55 -38 -27 -72 -51 -75 -54 -3 -3 -59 -42 -125 -87
-558 -376 -1219 -679 -1870 -856 -105 -28 -336 -82 -400 -94 -16 -2 -37 -7
-45 -9 -8 -2 -28 -6 -45 -9 -16 -3 -73 -12 -125 -21 -52 -9 -108 -18 -125 -21
-16 -2 -46 -6 -65 -9 -19 -3 -53 -7 -75 -9 -22 -2 -65 -7 -96 -11 -255 -32
-891 -41 -1149 -16 -47 5 -95 9 -108 9 -13 1 -78 8 -145 17 -68 8 -141 18
-162 20 -22 3 -51 7 -65 10 -14 3 -40 7 -58 10 -18 2 -45 6 -60 9 -15 3 -43 8
-62 11 -19 3 -42 8 -50 10 -8 2 -30 7 -49 10 -167 28 -507 120 -766 206 -345
116 -822 332 -1150 523 -138 81 -508 321 -537 349 -7 7 -29 24 -48 37 -19 13
-37 27 -40 30 -3 3 -21 17 -40 30 -19 13 -37 27 -40 30 -3 3 -25 21 -50 40
-25 19 -47 37 -50 40 -3 3 -27 24 -55 45 -27 22 -54 45 -60 51 -5 7 -44 40
-85 75 -95 80 -454 439 -539 539 -35 41 -67 77 -70 80 -4 3 -24 28 -46 55 -21
28 -44 55 -50 60 -6 6 -26 31 -45 58 -18 26 -36 47 -40 47 -3 0 -14 13 -23 30
-10 16 -23 35 -30 42 -7 7 -24 29 -37 48 -13 19 -27 37 -30 40 -17 13 -245
361 -325 495 -122 204 -315 592 -404 810 -60 146 -181 475 -181 491 0 2 301 4
668 4 l668 0 24 -57 c48 -121 222 -464 303 -599 105 -176 284 -443 317 -474 3
-3 18 -23 35 -45 16 -22 32 -42 35 -45 3 -3 21 -25 39 -50 19 -25 39 -49 45
-55 6 -5 43 -48 83 -95 80 -95 376 -389 467 -466 33 -27 73 -62 90 -77 17 -16
43 -36 59 -45 15 -9 27 -19 27 -23 0 -3 19 -19 42 -34 23 -15 54 -39 67 -52
14 -12 29 -23 33 -23 3 0 13 -6 20 -13 29 -29 242 -170 387 -257 459 -274 974
-478 1501 -594 63 -13 135 -28 160 -31 24 -4 47 -8 50 -10 6 -4 146 -24 210
-31 25 -3 72 -8 105 -13 33 -5 76 -9 95 -10 19 -1 82 -6 140 -11 134 -13 482
-13 625 0 61 5 143 12 184 15 41 4 77 8 80 10 3 2 39 6 80 9 41 4 77 8 80 10
3 2 29 7 56 10 28 4 57 9 65 11 8 3 32 7 54 9 21 3 46 8 55 10 9 3 30 8 46 10
39 7 97 21 215 51 571 144 1060 361 1553 688 108 71 265 182 277 196 3 4 23
19 45 36 22 16 42 32 45 35 3 3 28 23 55 45 28 22 68 56 90 76 22 20 85 77
140 127 101 91 182 172 269 272 27 30 65 73 85 95 20 22 54 63 76 90 22 28 42
52 45 55 3 3 19 23 35 45 17 22 32 42 36 45 25 23 234 327 311 455 103 170
188 331 261 490 139 305 232 566 312 885 27 106 43 173 50 210 3 14 8 39 11
55 4 17 8 40 10 52 1 12 5 34 8 50 3 15 8 44 11 63 3 19 10 61 16 93 5 31 7
62 4 67 -4 7 -1950 10 -5612 10 l-5606 0 -4 27 c-25 212 -27 503 -32 4350 l-6
4023 -36 -33z"/>
</g>
</svg>
