<?xml version="1.0" encoding="UTF-8"?>
<svg xmlns="http://www.w3.org/2000/svg" viewBox="0 0 720 720">
  <path d="m179.211,223.226v-2.9c0-56.48.01-112.96-.04-169.43,0-1.84.54-2.82,2.16-3.74,19.52-11.03,39.84-20.27,61.04-27.59,18.83-6.5,38.06-11.39,57.69-14.7,9.66-1.63,19.38-2.98,29.18-3.58,5.25-.32,10.5-.78,15.75-.92,8.63-.23,17.26-.51,25.88-.28,8.19.22,16.38,1.01,24.55,1.69,12.09,1,24.05,2.96,35.93,5.36,12.53,2.53,24.87,5.76,37.06,9.61,14.49,4.57,28.62,10.05,42.4,16.44,15.1,7,29.64,15.01,43.64,24.02,13.59,8.75,26.53,18.37,38.81,28.87,4.73,4.04,9.27,8.32,13.83,12.55,3.04,2.83,6.03,5.72,8.94,8.69,10.26,10.43,19.85,21.44,28.77,33.04,10.54,13.71,20.04,28.1,28.49,43.17,10.45,18.64,19.2,38.06,26.19,58.27,4.57,13.22,8.39,26.65,11.39,40.3,2.38,10.83,4.37,21.74,5.59,32.76.75,6.81,1.46,13.63,1.9,20.46.39,6.05.51,12.13.53,18.19.04,9.12.09,18.24-.24,27.35-.24,6.44-.97,12.87-1.72,19.27-.81,6.88-1.74,13.76-2.89,20.59-2.78,16.47-6.79,32.64-11.88,48.55-4.53,14.17-9.89,28.01-16.13,41.49-6.99,15.1-15,29.65-24.03,43.64-7.94,12.3-16.51,24.13-25.97,35.3-4.95,5.85-10.05,11.57-15.3,17.15-4.87,5.18-9.94,10.18-15.08,15.1-6.22,5.95-12.71,11.59-19.76,17.2-.05-1.15-.12-1.98-.12-2.81-.01-24,0-48,0-72,0-67.92.03-135.84-.04-203.75-.01-7.09-.59-14.18-.94-21.27-.04-.78-.29-1.54-.49-2.53H180.581c1.1-10.35,3.33-20.18,6.29-29.85,7.97-26.08,21.12-49.23,39.54-69.35,20.07-21.92,44.08-38.11,72.11-47.94,45.37-15.92,90.4-14.54,134.4,4.92,44.09,19.5,75.01,52.28,94.07,96.53h48c-6.99-22.01-16.99-42.33-30.17-61.04-25.21-35.77-57.95-62.34-98.4-79.07-47.37-19.6-96.04-22.95-145.56-9.63-49.56,13.34-89.79,40.93-121.65,81.87Z"/>
  <path d="m540.111,670.616c-152.78,89.71-363.1,55.55-476.25-106.35C10.451,485.306-9.759,398.516,4.371,304.336c15.2-101.22,70.78-177.73,128.98-224.2.1.61.22,1.1.25,1.59.04.72.01,1.44.01,2.16,0,91.44-.02,182.87.04,274.31.01,7.41.62,14.82.96,22.23.03.55.16,1.09.29,1.92h403.92c-3.06,23.45-10.2,45.16-21.58,65.5-11.45,20.47-26.33,38.04-44.62,52.71-18.23,14.62-38.55,25.35-60.93,32.01-87.73,26.09-182.63-16.51-219.23-104.42h-47.89c17.48,58.66,67.47,121.41,146.19,146.66,29.79,9.56,60.3,12.8,91.45,9.69,31.24-3.12,60.58-12.38,87.97-27.73,27.32-15.31,50.44-35.51,69.44-60.37.2.11.28.14.34.19.06.04.14.11.14.16.01,57.91.01,115.82.01,173.87Z"/>
</svg>